# xmcd
#
# Track frame offsets: 
#        150
#        14156
#        29453
#        41531
#        59751
#        77341
#        88178
#        106251
#        124836
#        142945
#        167745
#        193881
#        218536
#        235004
#        256922
#        274729
#
# Disc length: 3898 seconds
#
# Revision: 1
# Processed by: cddbd v1.5.2PL0 Copyright (c) Steve Scherf et al.
# Submitted via: ExactAudioCopy v0.99pb4
#
DISCID=dd0f3810
DTITLE=Collections - New Age Heaven
DYEAR=1900
DGENRE=New Age
TTITLE0=Le Papillon 蝴蝶
TTITLE1=Les Cite's Des Coeurs 心之城
TTITLE2=Stand By Your Man 支持你的愛人
TTITLE3=Radical Seed 根生的種子
TTITLE4=Cucurrucucu Paloma 鴿子歌
TTITLE5=In a Glade 林地之間
TTITLE6=Blue Light 藍光
TTITLE7=I Saw It in Your Eyes 在你眼裡
TTITLE8=蕭邦離別曲
TTITLE9=Into to West 西行
TTITLE10=Innamorata Di Te 深陷愛河
TTITLE11=The Mo Run Air A Ghille  鍾愛大地
TTITLE12=Tiden Renner 時光留逝
TTITLE13=Pachabel's Canon 卡農
TTITLE14=Serenade 舒伯特小夜曲
TTITLE15=Sweet Lullaby 甜蜜的搖籃曲
EXTD=
EXTT0=
EXTT1=
EXTT2=
EXTT3=
EXTT4=
EXTT5=
EXTT6=
EXTT7=
EXTT8=
EXTT9=
EXTT10=
EXTT11=
EXTT12=
EXTT13=
EXTT14=
EXTT15=
PLAYORDER=
